FILE "VAL" WAVE
  TRACK 01 AUDIO
    INDEX 00 00:00:00
    INDEX 01 00:00:01
  TRACK 02 AUDIO
    INDEX 00 00:00:02
    INDEX 01 00:00:03
  TRACK 03 AUDIO
    INDEX 01 00:00:04
